<svg xmlns="http://www.w3.org/2000/svg" width="1440" height="1440" viewBox="0 0 1440 1440"><path fill="#fff" fill-rule="evenodd" d="M426.805 359.25c-1.703 1.35-3.844 7.629-11.847 34.75-2.84 9.625-10.786 35.95-17.657 58.5A71362.314 71362.314 0 0 0 359.483 577c-4.747 15.675-18.676 61.575-30.955 102a225011.22 225011.22 0 0 0-35.505 117c-7.248 23.925-15.802 52.05-19.008 62.5-3.206 10.45-9.508 31.15-14.006 46-4.498 14.85-9.018 29.7-10.046 33-2.48 7.962-17.388 56.644-19.293 63-.824 2.75-5.084 16.475-9.467 30.5-11.602 37.131-12.576 40.846-11.151 42.563 1.708 2.058 229.088 2.178 230.795.122.6-.723 3.984-10.961 7.52-22.75a5490.75 5490.75 0 0 1 12.951-42.435c3.588-11.55 7.645-24.825 9.016-29.5 1.371-4.675 6.396-21.325 11.166-37 4.771-15.675 14.22-46.95 20.998-69.5 6.778-22.55 17.386-57.65 23.574-78 6.188-20.35 12.931-42.625 14.985-49.5 2.053-6.875 6.07-20.15 8.925-29.5a35463.057 35463.057 0 0 0 28.124-92.5c4.405-14.575 10.049-33.025 12.543-41 2.493-7.975 5.205-16.75 6.026-19.5.821-2.75 5.029-16.475 9.35-30.5a12993.42 12993.42 0 0 0 16.024-52.5c13.167-43.526 19.43-64.026 24.441-80 2.588-8.25 6.291-20.366 8.228-26.925 3.36-11.373 3.439-11.987 1.711-13.25-2.594-1.897-227.233-1.97-229.624-.075m215.497 238.496c5.391.18 13.941.179 19-.002 5.059-.181.648-.328-9.802-.327-10.45.001-14.589.149-9.198.329m242.309 239.21-95.889.544-7.451 25c-9.951 33.388-44.132 144.875-60.497 197.322-3.503 11.224-3.93 13.468-2.716 14.242 1.648 1.051 307.387.825 308.44-.228 1.004-1.005-.115-2.807-23.474-37.836-11.92-17.875-22.881-34.572-24.358-37.104l-2.685-4.605 2.569-8.895c15.102-52.282 38.922-134.335 40.569-139.745 1.569-5.159 1.8-7.133.934-8-1.387-1.39-7.533-1.421-135.442-.695"/><path fill="#0483ca" fill-rule="evenodd" d="M935.696 359.447c-.916.916-2.839 5.578-4.273 10.36-1.433 4.781-7.013 23.093-12.4 40.693-5.386 17.6-12.28 40.325-15.32 50.5-14.978 50.139-21.386 71.336-27.664 91.5-10.735 34.479-13.311 43.561-12.566 44.307.381.381 52.393.693 115.582.693 133.218 0 117.247 1.775 121.485-13.5 2.941-10.599 3.323-11.917 14.044-48.5 8.23-28.085 13.544-46.132 19.138-65 1.957-6.6 4.548-15.345 5.758-19.434 2.542-8.593.39-6.455 29.52-29.344 11.275-8.859 24.55-19.547 29.5-23.749 4.95-4.203 16.987-14.043 26.75-21.867 9.763-7.824 17.75-14.589 17.75-15.033 0-1.226-62.189-1.914-177.5-1.964-57.2-.025-109.431-.334-116.069-.687-10.484-.557-12.287-.423-13.735 1.025M709.769 597.756l-79.731.256-1.451 2.244c-.798 1.234-6.462 18.894-12.586 39.244-12.741 42.336-38.59 126.62-49.684 162-10.049 32.05-10.323 33.094-9.004 34.413 1.189 1.189 227.107 1.63 230.182.451 2.219-.852 2.535-1.753 11.506-32.864 4.282-14.85 10.791-36.9 14.464-49l11.539-38c2.673-8.8 8.52-28.15 12.993-43 4.474-14.85 10.739-35.325 13.923-45.5 7.125-22.769 8.669-28.745 7.681-29.732-.827-.826-25.63-.911-149.832-.512"/></svg>